<svg width="14" height="11" viewBox="0 0 14 11" fill="none" xmlns="http://www.w3.org/2000/svg">
<path d="M13.8931 2.26387C13.8046 2.13633 13.6719 2.07256 13.5244 2.07256H3.46591L3.12669 0.398568C3.08245 0.159427 2.89072 0 2.66949 0H0.471954C0.20648 0 0 0.223198 0 0.510168C0 0.797137 0.20648 1.02034 0.471954 1.02034H2.30077L4.21809 10.4903C4.26233 10.7295 4.45406 10.8889 4.67529 10.8889H12.1233C12.3888 10.8889 12.5953 10.6657 12.5953 10.3787C12.5953 10.0918 12.3888 9.86855 12.1233 9.86855H5.05875L4.82278 8.70473H12.3593C12.5805 8.70473 12.7722 8.54531 12.8165 8.30617L13.9964 2.69432C14.0111 2.55084 13.9816 2.39141 13.8931 2.26387Z" fill="white"/>
</svg>
